<svg xmlns="http://www.w3.org/2000/svg" id="Page-1" width="131.76" height="25.731" viewBox="0 0 131.76 25.731">
    <defs>
        <style>
            .cls-1{fill:#fff}.cls-1,.cls-3{fill-rule:evenodd}.cls-2{fill:#4b535e}.cls-3{fill:#bcbfc3}
        </style>
    </defs>
    <g id="Artboard-Copy" transform="translate(-1038 -5357)">
        <g id="Index" transform="translate(0 3856)">
            <g id="Dark">
                <g id="Group" transform="translate(798 1021)">
                    <g id="Group-2" transform="translate(240 480)">
                        <path id="Logo-Copy" d="M8.753 16.758A7.638 7.638 0 0 0 10 18.665a7.278 7.278 0 0 1-3.523.855A6.1 6.1 0 0 1 0 13.134 6.176 6.176 0 0 1 6.475 6.72a6.71 6.71 0 0 1 3.325.821A7.743 7.743 0 0 0 8.628 9.51a5.087 5.087 0 0 0-1.9-.357 3.724 3.724 0 0 0-3.946 3.981 3.8 3.8 0 0 0 4.058 3.981 5.2 5.2 0 0 0 1.913-.357zM16.3 6.72a6.119 6.119 0 0 1 6.363 6.414A6.112 6.112 0 0 1 16.3 19.52a6.1 6.1 0 0 1-6.335-6.386A6.112 6.112 0 0 1 16.3 6.72zm0 2.35c-2.056 0-3.557 1.576-3.557 4.064 0 2.461 1.5 4.036 3.557 4.036 2.112 0 3.585-1.575 3.585-4.036-.002-2.488-1.474-4.064-3.585-4.064zm8.114 10.174V7h2.75v12.244zm-.363-16.008a1.723 1.723 0 0 1 3.446 0 1.723 1.723 0 1 1-3.446 0zm5.512 4.535A16.57 16.57 0 0 1 35.2 6.72c3.14 0 5.141 1.189 5.141 4.645v7.879h-2.72v-7.63c0-1.769-1.111-2.406-2.64-2.406a9.573 9.573 0 0 0-2.667.359v9.677h-2.752zM42.648.444H45.4v6.884a6.811 6.811 0 0 1 2.8-.608 5.847 5.847 0 0 1 6.224 6.193c0 3.953-2.639 6.607-7.2 6.607a13.741 13.741 0 0 1-4.585-.8zM45.4 16.922a6.743 6.743 0 0 0 1.917.248c2.529 0 4.335-1.382 4.335-4.2a3.615 3.615 0 0 0-3.781-3.79 5.156 5.156 0 0 0-2.474.581zm16.977-5.89c0-1.327-1-1.935-2.362-1.935a6.96 6.96 0 0 0-3.557.995V7.714a8.24 8.24 0 0 1 4-.995c2.695 0 4.612 1.106 4.612 4.174v8.1a18.4 18.4 0 0 1-4.223.5c-3.2 0-5.53-.968-5.53-3.733 0-2.488 2.139-3.7 5.7-3.7h1.362zm0 2.848h-1.169c-1.918 0-3.168.552-3.168 1.8 0 1.272 1.168 1.769 2.834 1.769a10.049 10.049 0 0 0 1.5-.138zm4.7 2.046a6.474 6.474 0 0 0 3.751 1.382c1.223 0 2.029-.415 2.029-1.382 0-1-.722-1.355-2.306-1.769-2.556-.58-3.64-1.6-3.64-3.732 0-2.489 1.89-3.7 4.39-3.7a6.41 6.41 0 0 1 3.529.94v2.516a5.718 5.718 0 0 0-3.445-1.244c-1.195 0-1.834.58-1.834 1.382s.527 1.217 1.944 1.6c2.807.608 4.029 1.659 4.029 3.871 0 2.571-1.973 3.732-4.64 3.732a7.25 7.25 0 0 1-3.807-.995zm12.212-2.184v.058a3.761 3.761 0 0 0 3.973 3.373 7.022 7.022 0 0 0 4.14-1.189v2.406a7.858 7.858 0 0 1-4.334 1.133c-3.834 0-6.447-2.433-6.447-6.3 0-3.9 2.556-6.5 5.947-6.5 3.584 0 5.279 2.295 5.279 5.639v1.383zm5.974-1.769c-.055-1.909-1-2.958-2.778-2.958-1.584 0-2.751 1.106-3.112 2.958z" class="cls-1"/>
                        <rect id="Rectangle-11-Copy" width="1" height="25.731" class="cls-2" rx=".5" transform="translate(97.6)"/>
                        <path id="Pro-Copy" d="M110.414 14.743v4.571h-1.28V7.062a16.387 16.387 0 0 1 2.167-.185c3.385 0 4.809 1.565 4.809 3.871 0 2.615-1.837 4.036-4.912 4.036-.227 0-.516-.021-.784-.041zm0-6.734v5.663c.227.021.454.021.66.021 2.539 0 3.736-.968 3.736-2.945 0-1.586-.929-2.78-3.571-2.78-.247 0-.539.02-.825.041zm8.361 3.81v7.5h-1.238V11.16a6.293 6.293 0 0 1 3.343-.968 6.417 6.417 0 0 1 1.507.185v1.215a5.178 5.178 0 0 0-1.589-.227 4.08 4.08 0 0 0-2.023.453zm3.945 3.006a4.523 4.523 0 1 1 9.04 0 4.523 4.523 0 1 1-9.04 0zm7.781 0c0-2.183-1.362-3.624-3.261-3.624s-3.261 1.442-3.261 3.624 1.362 3.624 3.261 3.624 3.26-1.441 3.26-3.624z" class="cls-3"/>
                    </g>
                </g>
            </g>
        </g>
    </g>
</svg>
