<svg xmlns="http://www.w3.org/2000/svg" id="undraw_predictive_analytics_kf9n" width="798.681" height="647.009" viewBox="0 0 798.681 647.009">
    <defs>
        <style>
            .cls-1{fill:#f2f2f2}.cls-2{fill:#3f3d56}.cls-3,.cls-4,.cls-5{fill:#278ae8}.cls-3{opacity:.3}.cls-5{opacity:.4}.cls-6{fill:#2f2e41}.cls-7{fill:#ffb8b8}.cls-8{fill:#d0cde1}
        </style>
    </defs>
    <path id="Path_1" d="M126.832 0L74.02 103.009h10.661v84H30.953L0 247.381l383.53 196.636 126.833-247.381z" class="cls-1" data-name="Path 1"/>
    <path id="Rectangle_9" d="M0 0h588v295H0z" class="cls-2" data-name="Rectangle 9" transform="translate(115.681 67.009)"/>
    <path id="Rectangle_10" d="M0 0h434v1H0z" class="cls-3" data-name="Rectangle 10" transform="translate(198.181 173.009)"/>
    <path id="Rectangle_11" d="M0 0h434v1H0z" class="cls-3" data-name="Rectangle 11" transform="translate(198.681 198.009)"/>
    <path id="Rectangle_12" d="M0 0h434v1H0z" class="cls-3" data-name="Rectangle 12" transform="translate(198.681 248.009)"/>
    <path id="Rectangle_13" d="M0 0h434v1H0z" class="cls-3" data-name="Rectangle 13" transform="translate(198.681 270.009)"/>
    <path id="Rectangle_14" d="M0 0h434v1H0z" class="cls-3" data-name="Rectangle 14" transform="translate(198.681 223.009)"/>
    <ellipse id="Ellipse_1" cx="186" cy="17" class="cls-2" data-name="Ellipse 1" rx="186" ry="17" transform="translate(380.681 613.009)"/>
    <path id="Path_2" d="M210.722 270.733l-1.38-1.448 64.6-61.573 56.946 40.962 46.051-51.056 20.193 17.164 54.929-32.958 61.014 41.009 95.761-54.469.988 1.738-96.837 55.082L452 184.193l-55.071 33.042-19.805-16.835-45.949 50.944-57.054-41.044z" class="cls-4" data-name="Path 2"/>
    <path id="Path_3" d="M597.416 722.342c4.7 17.374 20.8 28.134 20.8 28.134s8.478-17.409 3.778-34.782-20.8-28.134-20.8-28.134-8.478 17.408-3.778 34.782z" class="cls-2" data-name="Path 3" transform="translate(-200.659 -126.496)"/>
    <path id="Path_4" d="M604.322 718.608c12.9 12.555 14.472 31.854 14.472 31.854s-19.334-1.056-32.231-13.61S572.091 705 572.091 705s19.335 1.054 32.231 13.608z" class="cls-4" data-name="Path 4" transform="translate(-200.659 -126.496)"/>
    <circle id="Ellipse_2" cx="33.5" cy="33.5" r="33.5" class="cls-5" data-name="Ellipse 2" transform="translate(731.681 20.009)"/>
    <circle id="Ellipse_3" cx="23.5" cy="23.5" r="23.5" class="cls-5" data-name="Ellipse 3" transform="translate(679.681 46.009)"/>
    <circle id="Ellipse_4" cx="12.5" cy="12.5" r="12.5" class="cls-5" data-name="Ellipse 4" transform="translate(661.681 488.009)"/>
    <circle id="Ellipse_5" cx="9.5" cy="9.5" r="9.5" class="cls-5" data-name="Ellipse 5" transform="translate(451.681 556.009)"/>
    <circle id="Ellipse_6" cx="12.5" cy="12.5" r="12.5" class="cls-5" data-name="Ellipse 6" transform="translate(416.681 427.009)"/>
    <circle id="Ellipse_7" cx="13" cy="13" r="13" class="cls-4" data-name="Ellipse 7" transform="translate(595.181 160.509)"/>
    <path id="Path_5" d="M724.373 535.47l-11.021 1.224s-4.9 22.041 0 51.429 11.021 58.777 11.021 58.777 4.9 95.511 7.347 96.736 24.49 8.571 25.714 1.224 1.224-175.1 1.224-175.1l17.142 80.813s2.449 101.634 7.347 101.634 20.817-1.224 20.817-9.8 3.674-121.226 3.674-121.226-1.224-83.266-6.122-85.715-77.143.004-77.143.004z" class="cls-6" data-name="Path 5" transform="translate(-200.659 -126.496)"/>
    <path id="Path_6" d="M734.169 739.962s-11.021-1.224-13.469 0-6.122 9.8 0 14.694 22.041 12.244 26.939 12.244a25.331 25.331 0 0 0 9.8-2.449l-2.449-20.817z" class="cls-6" data-name="Path 6" transform="translate(-200.659 -126.496)"/>
    <path id="Path_7" d="M783.149 746.084l1.224 17.143s15.919 2.449 17.143 0 13.469-8.572 14.694-9.8 2.449-14.694-4.9-15.919-9.8 2.449-9.8 2.449z" class="cls-6" data-name="Path 7" transform="translate(-200.659 -126.496)"/>
    <path id="Path_8" d="M680.291 432.612s-29.388 28.164-25.714 42.857 33.061 57.552 33.061 57.552 28.164 14.694 31.837 0S699.883 522 699.883 522l-18.367-44.082 20.817-29.388z" class="cls-7" data-name="Path 8" transform="translate(-200.659 -126.496)"/>
    <path id="Path_9" d="M811.6 389.765s26.771-17.216 26.152-29.043S821 311.6 821 311.6s-12.625-26.249-17.645-15.522 6.6 22.147 6.6 22.147l7.5 36.582-20.376 19.439z" class="cls-7" data-name="Path 9" transform="translate(-200.659 -126.496)"/>
    <circle id="Ellipse_8" cx="22.041" cy="22.041" r="22.041" class="cls-7" data-name="Ellipse 8" transform="translate(522.489 194.687)"/>
    <path id="Path_10" d="M734.169 356.693l3.674 23.266 26.939-4.9s-1.224-23.266-1.224-25.715-29.389 7.349-29.389 7.349z" class="cls-7" data-name="Path 10" transform="translate(-200.659 -126.496)"/>
    <path id="Path_11" d="M732.945 379.958s30.612-7.347 34.286-4.9 22.041 4.9 22.041 4.9l20.817 31.842-6.123 40.4s-1.224 64.9 1.224 75.919 15.919 12.245-12.245 14.694-33.062-1.224-52.654 3.674-35.51-2.449-30.612-7.347 13.469-83.266 3.674-90.613-13.469-45.306-13.469-45.306 33.061-17.14 33.061-23.263z" class="cls-8" data-name="Path 11" transform="translate(-200.659 -126.496)"/>
    <path id="Path_12" d="M785.6 383.632l3.674-3.673 7.347-7.347s23.878 10.408 22.653 14.082-9.184 25.1-9.184 25.1l-11.021 3.673z" class="cls-8" data-name="Path 12" transform="translate(-200.659 -126.496)"/>
    <path id="Path_13" d="M714.577 405.673l-14.694-2.449s-11.021 12.245-14.694 17.143-11.021 17.143-11.021 17.143l25.714 18.367 19.592-20.816z" class="cls-8" data-name="Path 13" transform="translate(-200.659 -126.496)"/>
    <path id="Path_14" d="M752.882 316.52l-.226-1.766a13.879 13.879 0 0 0-4.411.693 7.247 7.247 0 0 1 .272-3.173 14.107 14.107 0 0 0-4.083 1.775l-.891-3.222-12.243 6.033c-4.394 2.166-9.027 4.545-11.539 8.751-2.8 4.689-2.313 10.715-.4 15.829s5.1 9.641 7.645 14.471a36.146 36.146 0 0 0 3.474 5.913c4.621 5.76 13.615 6.924 20.129 3.447a11.648 11.648 0 0 0 5.578-5.74 37.307 37.307 0 0 0 1.114-4.753c.806-3.292 1.741-10.086 4.415-12.168 1.176-.916 3.509 2.121 4.484.993 2.505-2.9 1.98-7.371.424-10.874a79.348 79.348 0 0 0-5.223-10.188c-.837-1.311-8.546-6.232-8.519-6.021z" class="cls-6" data-name="Path 14" transform="translate(-200.659 -126.496)"/>
    <path id="Rectangle_15" d="M0 0h64v64H0z" class="cls-2" data-name="Rectangle 15" transform="translate(12.681 115.009)"/>
</svg>
