<svg xmlns="http://www.w3.org/2000/svg" width="118" height="32" viewBox="0 0 118 32">
    <defs>
        <style>
            .cls-1{fill:#e6e6ea;opacity:.3}.cls-2{font-size:18px;font-family:Montserrat-Medium,Montserrat;font-weight:500}.cls-3,.cls-4{stroke:none}.cls-4{fill:#707070}
        </style>
    </defs>
    <g id="Group_6" data-name="Group 6" transform="translate(-1679 -54)">
        <g id="Path_15" class="cls-1" data-name="Path 15">
            <path d="M114 31.5H4C2.07 31.5.5 29.93.5 28V4C.5 2.07 2.07.5 4 .5h110c1.93 0 3.5 1.57 3.5 3.5v24c0 1.93-1.57 3.5-3.5 3.5z" class="cls-3" transform="translate(1679 54)"/>
            <path d="M4 1C2.346 1 1 2.346 1 4v24c0 1.654 1.346 3 3 3h110c1.654 0 3-1.346 3-3V4c0-1.654-1.346-3-3-3H4m0-1h110a4 4 0 0 1 4 4v24a4 4 0 0 1-4 4H4a4 4 0 0 1-4-4V4a4 4 0 0 1 4-4z" class="cls-4" transform="translate(1679 54)"/>
        </g>
        <text id="Sign_out" class="cls-2" data-name="Sign out" transform="translate(1708 77)">
            <tspan x="0" y="0">Sign out</tspan>
        </text>
        <path id="Icon_open-account-logout" d="M6 0v2.286h8v11.428H6V16h10V0zM4 4.571L0 8l4 3.429V9.143h8V6.857H4z" data-name="Icon open-account-logout" transform="translate(1685 63)"/>
    </g>
</svg>
